<svg width="27" height="15" viewBox="0 0 27 15" fill="none" xmlns="http://www.w3.org/2000/svg">
<path d="M0.375001 13.1875C0.374855 13.0643 0.399045 12.9424 0.446178 12.8286C0.493312 12.7149 0.562461 12.6116 0.649651 12.5246L12.8372 0.337127C12.9242 0.250062 13.0275 0.180996 13.1412 0.133874C13.255 0.0867531 13.3769 0.0625 13.5 0.0625C13.6231 0.0625 13.745 0.0867531 13.8587 0.133874C13.9724 0.180996 14.0758 0.250062 14.1628 0.337127L26.3503 12.5246C26.5231 12.701 26.6194 12.9385 26.6182 13.1855C26.6169 13.4324 26.5183 13.669 26.3436 13.8436C26.169 14.0182 25.9325 14.1169 25.6855 14.1181C25.4385 14.1194 25.201 14.0231 25.0247 13.8503L13.5 2.3256L1.97533 13.8503C1.84422 13.9813 1.6772 14.0706 1.49537 14.1067C1.31354 14.1429 1.12507 14.1244 0.953783 14.0534C0.7825 13.9825 0.636093 13.8623 0.533073 13.7082C0.430053 13.5541 0.375044 13.3729 0.375001 13.1875Z" fill="white"/>
</svg>
