<svg width="227" height="227" viewBox="0 0 227 227" fill="none" xmlns="http://www.w3.org/2000/svg">
<path d="M200.745 102.434C190.825 74.3584 160.001 57.5036 124.419 57.4537C112.558 57.4355 100.089 59.3037 87.8014 63.2422C83.9946 64.4634 80.3807 65.9117 76.8259 67.444C95.3015 83.7721 112.015 98.9016 117.259 103.807C117.261 103.837 117.261 103.864 117.259 103.893C127.279 114.011 139.26 125.526 151.005 136.994C161.029 137.989 168.802 144.111 168.802 151.616C168.802 157.765 163.635 163.043 156.237 165.295C153.772 166.046 151.014 166.452 148.174 166.452C136.822 166.452 127.678 159.815 127.678 151.616C127.678 149.198 128.539 146.942 129.953 144.928C120.501 136.277 111.085 127.59 102.209 119.416C102.166 119.388 102.123 119.361 102.08 119.329C97.9982 115.048 79.2571 96.1799 60.0574 76.3628C28.4749 96.7224 12.2739 129.892 22.7523 159.549C35.9795 196.982 86.5847 214.497 135.739 198.741C184.896 182.982 213.973 139.866 200.745 102.434ZM119.316 87.7264C111.271 87.7264 104.692 82.9889 104.692 77.1777C104.692 71.3665 111.271 66.629 119.316 66.629C127.361 66.629 133.81 71.3665 133.81 77.1777C133.81 82.9889 127.361 87.7264 119.316 87.7264ZM139.941 86.5687C139.941 79.5975 147.825 74.0043 157.479 74.0043C167.133 74.0043 174.931 79.5953 174.931 86.5687C174.931 93.5421 167.131 99.2625 157.479 99.2625C147.827 99.2625 139.941 93.5421 139.941 86.5687ZM152.29 118.644C152.29 110.445 161.433 103.807 172.786 103.807C184.14 103.807 193.411 110.445 193.411 118.644C193.411 126.841 184.14 133.478 172.786 133.478C161.433 133.478 152.29 126.841 152.29 118.644Z" fill="#932432"/>
<path d="M153.963 163.964C157.111 163.283 159.928 162.114 162.11 160.534C164.282 158.964 165.805 157.129 166.654 155.129C150.624 138.622 130.888 120.41 115.886 105.262C103.094 93.3038 21.6126 19.3585 12.46 18.0465C12.3828 18.0351 12.2829 18.0079 12.2035 18.0033C12.124 18.0011 12.0469 18.0238 11.9878 18.0465C11.8743 18.0941 11.8403 18.1963 11.7744 18.2598C7.70207 22.2664 93.8349 107.775 103.537 117.954C119.624 132.775 137.696 149.772 153.963 163.964Z" fill="#932432"/>
<path d="M203.703 197.497C202.636 192.364 202.021 184.018 192.725 181.162C191.647 180.83 190.605 180.98 189.638 181.418C187.579 178.717 185.234 175.768 182.519 172.584L174.116 180.731C178.127 183.881 181.652 186.458 184.792 188.748C184.651 189.486 184.578 190.199 184.578 190.937C184.578 196.18 197.256 207.131 203.272 208.046C207.399 208.672 215.371 209.428 215.364 208.688C215.362 208.082 204.988 203.685 203.703 197.497Z" fill="#932432"/>
</svg>
