<svg width="44" height="44" viewBox="0 0 44 44" fill="none" xmlns="http://www.w3.org/2000/svg">
<path d="M40.2754 0.125H3.08842C1.38447 0.125 0 1.54102 0 3.2793V40.7207C0 42.459 1.38447 43.875 3.08842 43.875H40.2754C41.9793 43.875 43.3735 42.459 43.3735 40.7207V3.2793C43.3735 1.54102 41.9793 0.125 40.2754 0.125ZM13.1089 37.625H6.68029V16.7461H13.1185V37.625H13.1089ZM9.89458 13.8945C7.8324 13.8945 6.16717 12.2051 6.16717 10.1348C6.16717 8.06445 7.8324 6.375 9.89458 6.375C11.9471 6.375 13.622 8.06445 13.622 10.1348C13.622 12.2148 11.9568 13.8945 9.89458 13.8945ZM37.2063 37.625H30.7778V27.4688C30.7778 25.0469 30.7293 21.9316 27.4376 21.9316C24.0878 21.9316 23.5747 24.5684 23.5747 27.293V37.625H17.1461V16.7461H23.3133V19.5977H23.4004C24.262 17.957 26.363 16.2285 29.4901 16.2285C35.9961 16.2285 37.2063 20.5547 37.2063 26.1797V37.625Z" fill="white"/>
</svg>
