<svg width="54" height="38" viewBox="0 0 54 38" fill="none" xmlns="http://www.w3.org/2000/svg">
<path d="M52.6773 6.11748C52.0639 3.80791 50.2567 1.98896 47.962 1.37168C43.8029 0.25 27.125 0.25 27.125 0.25C27.125 0.25 10.4473 0.25 6.288 1.37168C3.99337 1.98906 2.18615 3.80791 1.57277 6.11748C0.458313 10.3037 0.458313 19.0379 0.458313 19.0379C0.458313 19.0379 0.458313 27.7721 1.57277 31.9583C2.18615 34.2679 3.99337 36.011 6.288 36.6283C10.4473 37.75 27.125 37.75 27.125 37.75C27.125 37.75 43.8028 37.75 47.962 36.6283C50.2567 36.011 52.0639 34.2679 52.6773 31.9583C53.7917 27.7721 53.7917 19.0379 53.7917 19.0379C53.7917 19.0379 53.7917 10.3037 52.6773 6.11748ZM21.6704 26.9679V11.1079L35.6098 19.0381L21.6704 26.9679Z" fill="white"/>
</svg>
