<svg width="54" height="38" viewBox="0 0 54 38" fill="none" xmlns="http://www.w3.org/2000/svg">
<path d="M52.6775 6.11748C52.0641 3.80791 50.2569 1.98896 47.9622 1.37168C43.803 0.25 27.1252 0.25 27.1252 0.25C27.1252 0.25 10.4475 0.25 6.28819 1.37168C3.99356 1.98906 2.18633 3.80791 1.57295 6.11748C0.458496 10.3037 0.458496 19.0379 0.458496 19.0379C0.458496 19.0379 0.458496 27.7721 1.57295 31.9583C2.18633 34.2679 3.99356 36.011 6.28819 36.6283C10.4475 37.75 27.1252 37.75 27.1252 37.75C27.1252 37.75 43.8029 37.75 47.9622 36.6283C50.2569 36.011 52.0641 34.2679 52.6775 31.9583C53.7919 27.7721 53.7919 19.0379 53.7919 19.0379C53.7919 19.0379 53.7919 10.3037 52.6775 6.11748ZM21.6706 26.9679V11.1079L35.61 19.0381L21.6706 26.9679Z" fill="black"/>
</svg>
